<svg xmlns="http://www.w3.org/2000/svg" viewBox="0 0 544.2 544.2" xmlns:v="https://vecta.io/nano"><path d="M272.1,0C2.1,0,0,121.8,0,272.1S2.1,544.2,272.1,544.2,544.2,422.4,544.2,272.1,542.1,0,272.1,0Z" fill="#00a701"/><g fill="#fff"><path d="M473.8 336.58l9.6-9.6-181.8-181.9s-47.83-49.32-87.34-10.56l-74 73.87s-49 36.6 6.22 92.38L327.82 483l9.6-9.62L193.8 301.32s-27.65-33.46-18.32-51.32l200.36 184.9 10.65-10.7L205.4 220.1l14.9-15 204.5 181.7 10.67-10.64-184.34-202s7.84-18 61 26.64z"/><path d="M220.56 180.53l-40.77 40.93L23.24 64.56l40.78-40.94 156.54 156.9z"/></g></svg>